<svg width="571" height="121" viewBox="0 0 571 121" fill="none" xmlns="http://www.w3.org/2000/svg">
<path d="M7.59375 67.3906C7.59375 69.9531 7.875 72.2812 8.4375 74.375C9.03125 76.4375 9.875 78.2031 10.9688 79.6719C12.0625 81.1094 13.4062 82.2188 15 83C16.5938 83.7812 18.4219 84.1719 20.4844 84.1719C22.0156 84.1719 23.4062 83.9688 24.6562 83.5625C25.9062 83.1562 27.0156 82.6406 27.9844 82.0156C28.9844 81.3906 29.8281 80.7344 30.5156 80.0469C31.2344 79.3281 31.7969 78.6719 32.2031 78.0781V54.7812C30.7031 53.25 28.9688 52.0312 27 51.125C25.0312 50.1875 22.9062 49.7188 20.625 49.7188C19.25 49.7188 17.7969 49.9844 16.2656 50.5156C14.7656 51.0156 13.3594 51.9375 12.0469 53.2812C10.7656 54.625 9.70312 56.4375 8.85938 58.7188C8.01562 60.9688 7.59375 63.8594 7.59375 67.3906ZM0 67.4844C0 64.3906 0.296875 61.6562 0.890625 59.2812C1.51562 56.875 2.32812 54.7812 3.32812 53C4.32812 51.2188 5.5 49.7344 6.84375 48.5469C8.1875 47.3281 9.57812 46.3438 11.0156 45.5938C12.4531 44.8438 13.9062 44.3125 15.375 44C16.875 43.6562 18.2812 43.4844 19.5938 43.4844C22.3125 43.4844 24.6719 43.9375 26.6719 44.8438C28.6719 45.75 30.4688 47.0781 32.0625 48.8281H32.2031V21.3125H39.4688V89.1875H33.9844L32.4844 84.2188H32.2969C31.7344 84.9375 31.0781 85.6719 30.3281 86.4219C29.5781 87.1406 28.6875 87.7969 27.6562 88.3906C26.6562 88.9844 25.4844 89.4531 24.1406 89.7969C22.8281 90.1719 21.2969 90.3594 19.5469 90.3594C17.1094 90.3594 14.7188 89.9531 12.375 89.1406C10.0312 88.2969 7.9375 86.9688 6.09375 85.1562C4.28125 83.3125 2.8125 80.9531 1.6875 78.0781C0.5625 75.1719 0 71.6406 0 67.4844ZM71.4844 49.7188C69.8281 49.7188 68.2812 50.0469 66.8438 50.7031C65.4375 51.3594 64.2031 52.25 63.1406 53.375C62.0781 54.5 61.2188 55.8281 60.5625 57.3594C59.9062 58.8594 59.5 60.4688 59.3438 62.1875H81.8438C81.8438 60.4375 81.6094 58.8125 81.1406 57.3125C80.7031 55.7812 80.0469 54.4531 79.1719 53.3281C78.2969 52.2031 77.2188 51.3281 75.9375 50.7031C74.6562 50.0469 73.1719 49.7188 71.4844 49.7188ZM75.4688 84.0312C77.875 84.0312 80.0625 83.8438 82.0312 83.4688C84.0312 83.0625 86.0156 82.5 87.9844 81.7812V87.8281C86.3906 88.6094 84.4219 89.2188 82.0781 89.6562C79.7344 90.125 77.2188 90.3594 74.5312 90.3594C71.3438 90.3594 68.3438 89.9531 65.5312 89.1406C62.75 88.3281 60.3125 87.0156 58.2188 85.2031C56.125 83.3906 54.4688 81.0312 53.25 78.125C52.0625 75.1875 51.4688 71.6562 51.4688 67.5312C51.4688 63.4688 52.0312 59.9531 53.1562 56.9844C54.2812 53.9844 55.7812 51.4844 57.6562 49.4844C59.5312 47.4844 61.6875 45.9844 64.125 44.9844C66.5625 43.9844 69.1094 43.4844 71.7656 43.4844C74.2656 43.4844 76.5938 43.9062 78.75 44.75C80.9375 45.5625 82.8281 46.8594 84.4219 48.6406C86.0156 50.4219 87.2656 52.7188 88.1719 55.5312C89.1094 58.3438 89.5781 61.7188 89.5781 65.6562C89.5781 66.0312 89.5781 66.3594 89.5781 66.6406C89.5781 66.8906 89.5625 67.4844 89.5312 68.4219H58.9688C58.9688 71.2656 59.3906 73.6875 60.2344 75.6875C61.1094 77.6562 62.2812 79.2656 63.75 80.5156C65.25 81.7344 67 82.625 69 83.1875C71 83.75 73.1562 84.0312 75.4688 84.0312ZM106.203 0H132.203L148.703 53.75H149.203L166.266 0H191.828V89.1875H176.891V13.9375H176.516L174.828 19.5625C174.37 21.1458 173.87 22.8125 173.328 24.5625C172.786 26.2708 172.307 27.75 171.891 29L160.391 65H137.953L126.203 28.75C125.786 27.5 125.307 26.0417 124.766 24.375C124.224 22.6667 123.724 21.0417 123.266 19.5C122.724 17.7083 122.161 15.8542 121.578 13.9375H121.203V89.1875H106.203V0ZM211.141 70.5C211.141 66.75 211.682 63.5833 212.766 61C213.891 58.4167 215.391 56.3333 217.266 54.75C219.182 53.1667 221.411 52.0208 223.953 51.3125C226.536 50.6042 229.307 50.25 232.266 50.25C235.266 50.25 237.974 50.4167 240.391 50.75C242.849 51.0833 244.974 51.4583 246.766 51.875C248.807 52.3333 250.661 52.8542 252.328 53.4375V47.3125C252.328 45.7708 252.266 44.4792 252.141 43.4375C252.057 42.3542 251.891 41.4167 251.641 40.625C251.391 39.8333 251.036 39.1667 250.578 38.625C250.161 38.0833 249.641 37.5625 249.016 37.0625C247.682 36.1042 245.849 35.4167 243.516 35C241.182 34.5833 238.141 34.375 234.391 34.375C232.016 34.375 229.703 34.4583 227.453 34.625C225.245 34.75 223.266 34.9167 221.516 35.125C219.474 35.3333 217.536 35.5625 215.703 35.8125V25.4375C217.37 24.7708 219.432 24.1667 221.891 23.625C223.974 23.1667 226.578 22.75 229.703 22.375C232.828 21.9583 236.536 21.75 240.828 21.75C243.703 21.75 246.245 21.875 248.453 22.125C250.703 22.3333 252.682 22.7083 254.391 23.25C256.099 23.7917 257.599 24.5 258.891 25.375C260.224 26.25 261.411 27.3333 262.453 28.625C263.328 29.7083 264.057 30.8542 264.641 32.0625C265.224 33.2708 265.703 34.6875 266.078 36.3125C266.453 37.9375 266.703 39.8125 266.828 41.9375C266.995 44.0208 267.078 46.4583 267.078 49.25V89.1875H254.516L253.391 84.3125C251.557 85.6042 249.536 86.75 247.328 87.75C245.411 88.5833 243.161 89.3542 240.578 90.0625C238.036 90.7708 235.224 91.125 232.141 91.125C228.391 91.125 225.182 90.75 222.516 90C219.849 89.25 217.661 88.0625 215.953 86.4375C214.286 84.8125 213.057 82.6875 212.266 80.0625C211.516 77.4375 211.141 74.25 211.141 70.5ZM226.328 70.5C226.328 72.3333 226.557 73.7917 227.016 74.875C227.474 75.9583 228.141 76.7917 229.016 77.375C229.891 77.9167 230.953 78.2708 232.203 78.4375C233.495 78.6042 234.953 78.6875 236.578 78.6875C238.703 78.6875 240.703 78.5 242.578 78.125C244.495 77.7083 246.182 77.2708 247.641 76.8125C249.307 76.2708 250.87 75.6458 252.328 74.9375V63.5C250.995 63.25 249.557 63.0208 248.016 62.8125C246.682 62.6042 245.161 62.4375 243.453 62.3125C241.786 62.1458 240.016 62.0625 238.141 62.0625C236.057 62.0625 234.266 62.1667 232.766 62.375C231.307 62.5417 230.099 62.9375 229.141 63.5625C228.182 64.1458 227.474 65 227.016 66.125C226.557 67.2083 226.328 68.6667 226.328 70.5ZM288.203 23.25H299.078L300.891 28.125C303.182 26.875 305.682 25.75 308.391 24.75C310.724 23.9167 313.411 23.1458 316.453 22.4375C319.495 21.7292 322.745 21.375 326.203 21.375C332.703 21.375 337.495 23.0833 340.578 26.5C343.703 29.875 345.266 35.1875 345.266 42.4375V89.1875H330.453V44.25C330.453 42.5417 330.328 41.0833 330.078 39.875C329.87 38.625 329.391 37.625 328.641 36.875C327.891 36.0833 326.807 35.5 325.391 35.125C323.974 34.75 322.078 34.5625 319.703 34.5625C317.203 34.5625 314.932 34.7292 312.891 35.0625C310.849 35.3542 309.099 35.6667 307.641 36C305.932 36.4167 304.391 36.875 303.016 37.375V89.1875H288.203V23.25ZM363.516 70.5C363.516 66.75 364.057 63.5833 365.141 61C366.266 58.4167 367.766 56.3333 369.641 54.75C371.557 53.1667 373.786 52.0208 376.328 51.3125C378.911 50.6042 381.682 50.25 384.641 50.25C387.641 50.25 390.349 50.4167 392.766 50.75C395.224 51.0833 397.349 51.4583 399.141 51.875C401.182 52.3333 403.036 52.8542 404.703 53.4375V47.3125C404.703 45.7708 404.641 44.4792 404.516 43.4375C404.432 42.3542 404.266 41.4167 404.016 40.625C403.766 39.8333 403.411 39.1667 402.953 38.625C402.536 38.0833 402.016 37.5625 401.391 37.0625C400.057 36.1042 398.224 35.4167 395.891 35C393.557 34.5833 390.516 34.375 386.766 34.375C384.391 34.375 382.078 34.4583 379.828 34.625C377.62 34.75 375.641 34.9167 373.891 35.125C371.849 35.3333 369.911 35.5625 368.078 35.8125V25.4375C369.745 24.7708 371.807 24.1667 374.266 23.625C376.349 23.1667 378.953 22.75 382.078 22.375C385.203 21.9583 388.911 21.75 393.203 21.75C396.078 21.75 398.62 21.875 400.828 22.125C403.078 22.3333 405.057 22.7083 406.766 23.25C408.474 23.7917 409.974 24.5 411.266 25.375C412.599 26.25 413.786 27.3333 414.828 28.625C415.703 29.7083 416.432 30.8542 417.016 32.0625C417.599 33.2708 418.078 34.6875 418.453 36.3125C418.828 37.9375 419.078 39.8125 419.203 41.9375C419.37 44.0208 419.453 46.4583 419.453 49.25V89.1875H406.891L405.766 84.3125C403.932 85.6042 401.911 86.75 399.703 87.75C397.786 88.5833 395.536 89.3542 392.953 90.0625C390.411 90.7708 387.599 91.125 384.516 91.125C380.766 91.125 377.557 90.75 374.891 90C372.224 89.25 370.036 88.0625 368.328 86.4375C366.661 84.8125 365.432 82.6875 364.641 80.0625C363.891 77.4375 363.516 74.25 363.516 70.5ZM378.703 70.5C378.703 72.3333 378.932 73.7917 379.391 74.875C379.849 75.9583 380.516 76.7917 381.391 77.375C382.266 77.9167 383.328 78.2708 384.578 78.4375C385.87 78.6042 387.328 78.6875 388.953 78.6875C391.078 78.6875 393.078 78.5 394.953 78.125C396.87 77.7083 398.557 77.2708 400.016 76.8125C401.682 76.2708 403.245 75.6458 404.703 74.9375V63.5C403.37 63.25 401.932 63.0208 400.391 62.8125C399.057 62.6042 397.536 62.4375 395.828 62.3125C394.161 62.1458 392.391 62.0625 390.516 62.0625C388.432 62.0625 386.641 62.1667 385.141 62.375C383.682 62.5417 382.474 62.9375 381.516 63.5625C380.557 64.1458 379.849 65 379.391 66.125C378.932 67.2083 378.703 68.6667 378.703 70.5ZM445.766 105.688C447.266 106.021 448.995 106.292 450.953 106.5C452.62 106.708 454.62 106.875 456.953 107C459.328 107.167 461.953 107.25 464.828 107.25C468.328 107.25 471.161 107.104 473.328 106.812C475.536 106.562 477.245 106.083 478.453 105.375C479.703 104.708 480.557 103.771 481.016 102.562C481.474 101.396 481.703 99.9167 481.703 98.125V86.625C479.828 87.4167 477.849 88.125 475.766 88.75C473.932 89.2917 471.849 89.7708 469.516 90.1875C467.224 90.6458 464.807 90.875 462.266 90.875C457.891 90.875 454.12 90.2917 450.953 89.125C447.828 87.9167 445.245 85.9375 443.203 83.1875C441.203 80.4375 439.724 76.8333 438.766 72.375C437.807 67.9167 437.328 62.4375 437.328 55.9375C437.328 50.6042 437.849 45.8333 438.891 41.625C439.932 37.375 441.453 33.7917 443.453 30.875C445.495 27.9167 447.995 25.6667 450.953 24.125C453.953 22.5417 457.391 21.75 461.266 21.75C464.557 21.75 467.557 22.0833 470.266 22.75C473.016 23.4167 475.391 24.1458 477.391 24.9375C479.682 25.8958 481.766 26.9583 483.641 28.125L485.328 23.25H496.578V99.0625C496.578 103.021 495.995 106.354 494.828 109.062C493.703 111.812 491.974 114.021 489.641 115.688C487.349 117.396 484.474 118.604 481.016 119.312C477.557 120.062 473.536 120.438 468.953 120.438C466.036 120.438 463.203 120.229 460.453 119.812C457.703 119.438 455.224 119 453.016 118.5C450.432 117.958 448.016 117.312 445.766 116.562V105.688ZM467.516 77.5625C469.266 77.5625 470.974 77.5 472.641 77.375C474.349 77.2083 475.87 77.0208 477.203 76.8125C478.786 76.6042 480.286 76.3333 481.703 76V38.25C480.078 37.6667 478.328 37.1458 476.453 36.6875C474.87 36.2708 473.057 35.8958 471.016 35.5625C468.974 35.2292 466.87 35.0625 464.703 35.0625C462.495 35.0625 460.641 35.4167 459.141 36.125C457.641 36.8333 456.432 38.0208 455.516 39.6875C454.599 41.3542 453.932 43.5625 453.516 46.3125C453.141 49.0625 452.953 52.4792 452.953 56.5625C452.953 60.3125 453.078 63.5208 453.328 66.1875C453.578 68.8542 454.182 71.0417 455.141 72.75C456.099 74.4167 457.557 75.6458 459.516 76.4375C461.474 77.1875 464.141 77.5625 467.516 77.5625ZM512.828 55.5C512.828 48.625 513.724 42.9792 515.516 38.5625C517.307 34.1458 519.682 30.6667 522.641 28.125C525.599 25.5833 528.974 23.8333 532.766 22.875C536.557 21.875 540.453 21.375 544.453 21.375C549.495 21.375 553.661 22.0625 556.953 23.4375C560.286 24.8125 562.932 26.75 564.891 29.25C566.849 31.7083 568.224 34.6667 569.016 38.125C569.807 41.5833 570.203 45.3958 570.203 49.5625C570.203 51.5208 570.12 53.5417 569.953 55.625C569.828 57.7083 569.641 59.8542 569.391 62.0625H528.078C528.12 65.0208 528.432 67.5208 529.016 69.5625C529.641 71.5625 530.641 73.2083 532.016 74.5C533.432 75.75 535.286 76.6667 537.578 77.25C539.911 77.7917 542.807 78.0625 546.266 78.0625C549.182 78.0625 551.911 78 554.453 77.875C556.995 77.7083 559.224 77.5208 561.141 77.3125C563.391 77.1042 565.432 76.8333 567.266 76.5V86.875C565.141 87.6667 562.828 88.375 560.328 89C558.203 89.5417 555.724 90.0208 552.891 90.4375C550.057 90.8958 547.036 91.125 543.828 91.125C538.911 91.125 534.536 90.5 530.703 89.25C526.87 88.0417 523.62 86.0417 520.953 83.25C518.328 80.4167 516.307 76.7292 514.891 72.1875C513.516 67.6458 512.828 62.0833 512.828 55.5ZM556.516 50.9375V48.5625C556.516 46.0625 556.349 43.8958 556.016 42.0625C555.724 40.1875 555.099 38.6458 554.141 37.4375C553.182 36.2292 551.828 35.3333 550.078 34.75C548.328 34.1667 545.995 33.875 543.078 33.875C539.953 33.875 537.391 34.25 535.391 35C533.432 35.7083 531.891 36.7917 530.766 38.25C529.682 39.6667 528.932 41.4375 528.516 43.5625C528.141 45.6875 527.953 48.1458 527.953 50.9375H556.516Z" fill="white"/>
</svg>
